<?xml version="1.0" encoding="utf-8" standalone="no"?>
<!DOCTYPE svg PUBLIC "-//W3C//DTD SVG 1.1//EN"
  "http://www.w3.org/Graphics/SVG/1.1/DTD/svg11.dtd">
<!-- Created with matplotlib (https://matplotlib.org/) -->
<svg height="558pt" version="1.1" viewBox="0 0 572.4 558" width="572.4pt" xmlns="http://www.w3.org/2000/svg" xmlns:xlink="http://www.w3.org/1999/xlink">
 <defs>
  <style type="text/css">
*{stroke-linecap:butt;stroke-linejoin:round;}
  </style>
 </defs>
 <g id="figure_1">
  <g id="patch_1">
   <path d="M 0 558 
L 572.4 558 
L 572.4 0 
L 0 0 
z
" style="fill:none;"/>
  </g>
  <g id="patch_2">
   <path d="M 7.2 550.8 
L 565.2 550.8 
L 565.2 7.2 
L 7.2 7.2 
z
" style="fill:#ffffff;"/>
  </g>
  <g id="pane3d_1">
   <g id="patch_3">
    <path d="M 380.367632 303.447995 
L 102.524822 354.087994 
L 92.574791 93.54626 
L 384.74053 48.141192 
" style="fill:#f2f2f2;opacity:0.5;stroke:#f2f2f2;stroke-linejoin:miter;"/>
   </g>
  </g>
  <g id="pane3d_2">
   <g id="patch_4">
    <path d="M 380.367632 303.447995 
L 495.275423 450.08867 
L 506.359487 179.993089 
L 384.74053 48.141192 
" style="fill:#e6e6e6;opacity:0.5;stroke:#e6e6e6;stroke-linejoin:miter;"/>
   </g>
  </g>
  <g id="pane3d_3">
   <g id="patch_5">
    <path d="M 380.367632 303.447995 
L 495.275423 450.08867 
L 196.768566 509.835219 
L 102.524822 354.087994 
" style="fill:#ececec;opacity:0.5;stroke:#ececec;stroke-linejoin:miter;"/>
   </g>
  </g>
  <g id="axis3d_1">
   <g id="line2d_1">
    <path d="M 102.524822 354.087994 
L 196.768566 509.835219 
" style="fill:none;stroke:#000000;stroke-linecap:square;stroke-width:0.8;"/>
   </g>
   <g id="text_1">
    <!-- X -->
    <defs>
     <path d="M 6.296875 72.90625 
L 16.890625 72.90625 
L 35.015625 45.796875 
L 53.21875 72.90625 
L 63.8125 72.90625 
L 40.375 37.890625 
L 65.375 0 
L 54.78125 0 
L 34.28125 31 
L 13.625 0 
L 2.984375 0 
L 29 38.921875 
z
" id="DejaVuSans-88"/>
    </defs>
    <g transform="translate(119.09998 458.489052)scale(0.1 -0.1)">
     <use xlink:href="#DejaVuSans-88"/>
    </g>
   </g>
   <g id="Line3DCollection_1">
    <path d="M 104.260752 356.956792 
L 382.489363 306.155663 
L 386.976739 50.565554 
" style="fill:none;stroke:#b0b0b0;stroke-width:0.8;"/>
    <path d="M 114.79506 374.365791 
L 395.360686 322.581524 
L 400.550118 65.280988 
" style="fill:none;stroke:#b0b0b0;stroke-width:0.8;"/>
    <path d="M 125.537252 392.118339 
L 408.47863 339.322114 
L 414.396986 80.292922 
" style="fill:none;stroke:#b0b0b0;stroke-width:0.8;"/>
    <path d="M 136.493543 410.224707 
L 421.850353 356.386566 
L 428.525691 95.610408 
" style="fill:none;stroke:#b0b0b0;stroke-width:0.8;"/>
    <path d="M 147.670397 428.695578 
L 435.483291 373.78437 
L 442.944929 111.242871 
" style="fill:none;stroke:#b0b0b0;stroke-width:0.8;"/>
    <path d="M 159.074544 447.542072 
L 449.385173 391.525389 
L 457.663752 127.200127 
" style="fill:none;stroke:#b0b0b0;stroke-width:0.8;"/>
    <path d="M 170.712987 466.775765 
L 463.564037 409.619882 
L 472.691597 143.492404 
" style="fill:none;stroke:#b0b0b0;stroke-width:0.8;"/>
    <path d="M 182.593021 486.408712 
L 478.028244 428.078518 
L 488.038297 160.130366 
" style="fill:none;stroke:#b0b0b0;stroke-width:0.8;"/>
    <path d="M 194.722249 506.453476 
L 492.786496 446.912402 
L 503.71411 177.125131 
" style="fill:none;stroke:#b0b0b0;stroke-width:0.8;"/>
   </g>
   <g id="xtick_1">
    <g id="line2d_2">
     <path d="M 106.551367 356.538554 
L 99.676293 357.793858 
" style="fill:none;stroke:#000000;stroke-linecap:square;stroke-width:0.8;"/>
    </g>
    <g id="text_2">
     <!-- 0.00 -->
     <defs>
      <path d="M 31.78125 66.40625 
Q 24.171875 66.40625 20.328125 58.90625 
Q 16.5 51.421875 16.5 36.375 
Q 16.5 21.390625 20.328125 13.890625 
Q 24.171875 6.390625 31.78125 6.390625 
Q 39.453125 6.390625 43.28125 13.890625 
Q 47.125 21.390625 47.125 36.375 
Q 47.125 51.421875 43.28125 58.90625 
Q 39.453125 66.40625 31.78125 66.40625 
z
M 31.78125 74.21875 
Q 44.046875 74.21875 50.515625 64.515625 
Q 56.984375 54.828125 56.984375 36.375 
Q 56.984375 17.96875 50.515625 8.265625 
Q 44.046875 -1.421875 31.78125 -1.421875 
Q 19.53125 -1.421875 13.0625 8.265625 
Q 6.59375 17.96875 6.59375 36.375 
Q 6.59375 54.828125 13.0625 64.515625 
Q 19.53125 74.21875 31.78125 74.21875 
z
" id="DejaVuSans-48"/>
      <path d="M 10.6875 12.40625 
L 21 12.40625 
L 21 0 
L 10.6875 0 
z
" id="DejaVuSans-46"/>
     </defs>
     <g transform="translate(82.032501 376.579824)scale(0.1 -0.1)">
      <use xlink:href="#DejaVuSans-48"/>
      <use x="63.623047" xlink:href="#DejaVuSans-46"/>
      <use x="95.410156" xlink:href="#DejaVuSans-48"/>
      <use x="159.033203" xlink:href="#DejaVuSans-48"/>
     </g>
    </g>
   </g>
   <g id="xtick_2">
    <g id="line2d_3">
     <path d="M 117.105554 373.939341 
L 110.170784 375.219298 
" style="fill:none;stroke:#000000;stroke-linecap:square;stroke-width:0.8;"/>
    </g>
    <g id="text_3">
     <!-- 0.25 -->
     <defs>
      <path d="M 19.1875 8.296875 
L 53.609375 8.296875 
L 53.609375 0 
L 7.328125 0 
L 7.328125 8.296875 
Q 12.9375 14.109375 22.625 23.890625 
Q 32.328125 33.6875 34.8125 36.53125 
Q 39.546875 41.84375 41.421875 45.53125 
Q 43.3125 49.21875 43.3125 52.78125 
Q 43.3125 58.59375 39.234375 62.25 
Q 35.15625 65.921875 28.609375 65.921875 
Q 23.96875 65.921875 18.8125 64.3125 
Q 13.671875 62.703125 7.8125 59.421875 
L 7.8125 69.390625 
Q 13.765625 71.78125 18.9375 73 
Q 24.125 74.21875 28.421875 74.21875 
Q 39.75 74.21875 46.484375 68.546875 
Q 53.21875 62.890625 53.21875 53.421875 
Q 53.21875 48.921875 51.53125 44.890625 
Q 49.859375 40.875 45.40625 35.40625 
Q 44.1875 33.984375 37.640625 27.21875 
Q 31.109375 20.453125 19.1875 8.296875 
z
" id="DejaVuSans-50"/>
      <path d="M 10.796875 72.90625 
L 49.515625 72.90625 
L 49.515625 64.59375 
L 19.828125 64.59375 
L 19.828125 46.734375 
Q 21.96875 47.46875 24.109375 47.828125 
Q 26.265625 48.1875 28.421875 48.1875 
Q 40.625 48.1875 47.75 41.5 
Q 54.890625 34.8125 54.890625 23.390625 
Q 54.890625 11.625 47.5625 5.09375 
Q 40.234375 -1.421875 26.90625 -1.421875 
Q 22.3125 -1.421875 17.546875 -0.640625 
Q 12.796875 0.140625 7.71875 1.703125 
L 7.71875 11.625 
Q 12.109375 9.234375 16.796875 8.0625 
Q 21.484375 6.890625 26.703125 6.890625 
Q 35.15625 6.890625 40.078125 11.328125 
Q 45.015625 15.765625 45.015625 23.390625 
Q 45.015625 31 40.078125 35.4375 
Q 35.15625 39.890625 26.703125 39.890625 
Q 22.75 39.890625 18.8125 39.015625 
Q 14.890625 38.140625 10.796875 36.28125 
z
" id="DejaVuSans-53"/>
     </defs>
     <g transform="translate(92.449885 394.091996)scale(0.1 -0.1)">
      <use xlink:href="#DejaVuSans-48"/>
      <use x="63.623047" xlink:href="#DejaVuSans-46"/>
      <use x="95.410156" xlink:href="#DejaVuSans-50"/>
      <use x="159.033203" xlink:href="#DejaVuSans-53"/>
     </g>
    </g>
   </g>
   <g id="xtick_3">
    <g id="line2d_4">
     <path d="M 127.867967 391.683433 
L 120.872473 392.988776 
" style="fill:none;stroke:#000000;stroke-linecap:square;stroke-width:0.8;"/>
    </g>
    <g id="text_4">
     <!-- 0.50 -->
     <g transform="translate(103.072676 411.949468)scale(0.1 -0.1)">
      <use xlink:href="#DejaVuSans-48"/>
      <use x="63.623047" xlink:href="#DejaVuSans-46"/>
      <use x="95.410156" xlink:href="#DejaVuSans-53"/>
      <use x="159.033203" xlink:href="#DejaVuSans-48"/>
     </g>
    </g>
   </g>
   <g id="xtick_4">
    <g id="line2d_5">
     <path d="M 138.844829 409.78109 
L 131.787556 411.112583 
" style="fill:none;stroke:#000000;stroke-linecap:square;stroke-width:0.8;"/>
    </g>
    <g id="text_5">
     <!-- 0.75 -->
     <defs>
      <path d="M 8.203125 72.90625 
L 55.078125 72.90625 
L 55.078125 68.703125 
L 28.609375 0 
L 18.3125 0 
L 43.21875 64.59375 
L 8.203125 64.59375 
z
" id="DejaVuSans-55"/>
     </defs>
     <g transform="translate(113.907009 430.162554)scale(0.1 -0.1)">
      <use xlink:href="#DejaVuSans-48"/>
      <use x="63.623047" xlink:href="#DejaVuSans-46"/>
      <use x="95.410156" xlink:href="#DejaVuSans-55"/>
      <use x="159.033203" xlink:href="#DejaVuSans-53"/>
     </g>
    </g>
   </g>
   <g id="xtick_5">
    <g id="line2d_6">
     <path d="M 150.042616 428.242988 
L 142.922481 429.601423 
" style="fill:none;stroke:#000000;stroke-linecap:square;stroke-width:0.8;"/>
    </g>
    <g id="text_6">
     <!-- 1.00 -->
     <defs>
      <path d="M 12.40625 8.296875 
L 28.515625 8.296875 
L 28.515625 63.921875 
L 10.984375 60.40625 
L 10.984375 69.390625 
L 28.421875 72.90625 
L 38.28125 72.90625 
L 38.28125 8.296875 
L 54.390625 8.296875 
L 54.390625 0 
L 12.40625 0 
z
" id="DejaVuSans-49"/>
     </defs>
     <g transform="translate(124.959268 448.741984)scale(0.1 -0.1)">
      <use xlink:href="#DejaVuSans-49"/>
      <use x="63.623047" xlink:href="#DejaVuSans-46"/>
      <use x="95.410156" xlink:href="#DejaVuSans-48"/>
      <use x="159.033203" xlink:href="#DejaVuSans-48"/>
     </g>
    </g>
   </g>
   <g id="xtick_6">
    <g id="line2d_7">
     <path d="M 161.468064 447.080232 
L 154.283957 448.466437 
" style="fill:none;stroke:#000000;stroke-linecap:square;stroke-width:0.8;"/>
    </g>
    <g id="text_7">
     <!-- 1.25 -->
     <g transform="translate(136.236094 467.698923)scale(0.1 -0.1)">
      <use xlink:href="#DejaVuSans-49"/>
      <use x="63.623047" xlink:href="#DejaVuSans-46"/>
      <use x="95.410156" xlink:href="#DejaVuSans-50"/>
      <use x="159.033203" xlink:href="#DejaVuSans-53"/>
     </g>
    </g>
   </g>
   <g id="xtick_7">
    <g id="line2d_8">
     <path d="M 173.128188 466.304389 
L 165.878969 467.719223 
" style="fill:none;stroke:#000000;stroke-linecap:square;stroke-width:0.8;"/>
    </g>
    <g id="text_8">
     <!-- 1.50 -->
     <g transform="translate(147.744401 487.044995)scale(0.1 -0.1)">
      <use xlink:href="#DejaVuSans-49"/>
      <use x="63.623047" xlink:href="#DejaVuSans-46"/>
      <use x="95.410156" xlink:href="#DejaVuSans-53"/>
      <use x="159.033203" xlink:href="#DejaVuSans-48"/>
     </g>
    </g>
   </g>
   <g id="xtick_8">
    <g id="line2d_9">
     <path d="M 185.030293 485.927502 
L 177.714793 487.371861 
" style="fill:none;stroke:#000000;stroke-linecap:square;stroke-width:0.8;"/>
    </g>
    <g id="text_9">
     <!-- 1.75 -->
     <g transform="translate(159.491392 506.792307)scale(0.1 -0.1)">
      <use xlink:href="#DejaVuSans-49"/>
      <use x="63.623047" xlink:href="#DejaVuSans-46"/>
      <use x="95.410156" xlink:href="#DejaVuSans-55"/>
      <use x="159.033203" xlink:href="#DejaVuSans-53"/>
     </g>
    </g>
   </g>
   <g id="xtick_9">
    <g id="line2d_10">
     <path d="M 197.18199 505.96212 
L 189.799009 507.436939 
" style="fill:none;stroke:#000000;stroke-linecap:square;stroke-width:0.8;"/>
    </g>
    <g id="text_10">
     <!-- 2.00 -->
     <g transform="translate(171.484569 526.95347)scale(0.1 -0.1)">
      <use xlink:href="#DejaVuSans-50"/>
      <use x="63.623047" xlink:href="#DejaVuSans-46"/>
      <use x="95.410156" xlink:href="#DejaVuSans-48"/>
      <use x="159.033203" xlink:href="#DejaVuSans-48"/>
     </g>
    </g>
   </g>
  </g>
  <g id="axis3d_2">
   <g id="line2d_11">
    <path d="M 495.275423 450.08867 
L 196.768566 509.835219 
" style="fill:none;stroke:#000000;stroke-linecap:square;stroke-width:0.8;"/>
   </g>
   <g id="text_11">
    <!-- Z -->
    <defs>
     <path d="M 5.609375 72.90625 
L 62.890625 72.90625 
L 62.890625 65.375 
L 16.796875 8.296875 
L 64.015625 8.296875 
L 64.015625 0 
L 4.5 0 
L 4.5 7.515625 
L 50.59375 64.59375 
L 5.609375 64.59375 
z
" id="DejaVuSans-90"/>
    </defs>
    <g transform="translate(354.644287 519.186372)scale(0.1 -0.1)">
     <use xlink:href="#DejaVuSans-90"/>
    </g>
   </g>
   <g id="Line3DCollection_2">
    <path d="M 379.068561 49.022665 
L 374.965887 304.432525 
L 489.486082 451.247415 
" style="fill:none;stroke:#b0b0b0;stroke-width:0.8;"/>
    <path d="M 344.893672 54.333737 
L 342.425732 310.363336 
L 454.599199 458.230071 
" style="fill:none;stroke:#b0b0b0;stroke-width:0.8;"/>
    <path d="M 310.471589 59.683224 
L 309.661603 316.33497 
L 419.45165 465.2649 
" style="fill:none;stroke:#b0b0b0;stroke-width:0.8;"/>
    <path d="M 275.799622 65.071546 
L 276.67118 322.347848 
L 384.040503 472.352489 
" style="fill:none;stroke:#b0b0b0;stroke-width:0.8;"/>
    <path d="M 240.875039 70.499126 
L 243.452109 328.4024 
L 348.362782 479.493433 
" style="fill:none;stroke:#b0b0b0;stroke-width:0.8;"/>
    <path d="M 205.69507 75.966396 
L 210.002007 334.49906 
L 312.415464 486.688337 
" style="fill:none;stroke:#b0b0b0;stroke-width:0.8;"/>
    <path d="M 170.256902 81.473792 
L 176.318453 340.638269 
L 276.195483 493.937815 
" style="fill:none;stroke:#b0b0b0;stroke-width:0.8;"/>
    <path d="M 134.557683 87.021757 
L 142.398997 346.820474 
L 239.699724 501.24249 
" style="fill:none;stroke:#b0b0b0;stroke-width:0.8;"/>
    <path d="M 98.594519 92.610742 
L 108.24115 353.046128 
L 202.925026 508.602995 
" style="fill:none;stroke:#b0b0b0;stroke-width:0.8;"/>
   </g>
   <g id="xtick_10">
    <g id="line2d_12">
     <path d="M 488.492812 449.974043 
L 491.476675 453.799355 
" style="fill:none;stroke:#000000;stroke-linecap:square;stroke-width:0.8;"/>
    </g>
    <g id="text_12">
     <!-- 0.00 -->
     <g transform="translate(482.930506 475.519637)scale(0.1 -0.1)">
      <use xlink:href="#DejaVuSans-48"/>
      <use x="63.623047" xlink:href="#DejaVuSans-46"/>
      <use x="95.410156" xlink:href="#DejaVuSans-48"/>
      <use x="159.033203" xlink:href="#DejaVuSans-48"/>
     </g>
    </g>
   </g>
   <g id="xtick_11">
    <g id="line2d_13">
     <path d="M 453.626002 456.947206 
L 456.549579 460.801056 
" style="fill:none;stroke:#000000;stroke-linecap:square;stroke-width:0.8;"/>
    </g>
    <g id="text_13">
     <!-- 0.25 -->
     <g transform="translate(448.014667 482.573644)scale(0.1 -0.1)">
      <use xlink:href="#DejaVuSans-48"/>
      <use x="63.623047" xlink:href="#DejaVuSans-46"/>
      <use x="95.410156" xlink:href="#DejaVuSans-50"/>
      <use x="159.033203" xlink:href="#DejaVuSans-53"/>
     </g>
    </g>
   </g>
   <g id="xtick_12">
    <g id="line2d_14">
     <path d="M 418.498855 463.972435 
L 421.361159 467.855144 
" style="fill:none;stroke:#000000;stroke-linecap:square;stroke-width:0.8;"/>
    </g>
    <g id="text_14">
     <!-- 0.50 -->
     <g transform="translate(412.837601 489.680427)scale(0.1 -0.1)">
      <use xlink:href="#DejaVuSans-48"/>
      <use x="63.623047" xlink:href="#DejaVuSans-46"/>
      <use x="95.410156" xlink:href="#DejaVuSans-53"/>
      <use x="159.033203" xlink:href="#DejaVuSans-48"/>
     </g>
    </g>
   </g>
   <g id="xtick_13">
    <g id="line2d_15">
     <path d="M 383.108443 471.050316 
L 385.908471 474.962209 
" style="fill:none;stroke:#000000;stroke-linecap:square;stroke-width:0.8;"/>
    </g>
    <g id="text_15">
     <!-- 0.75 -->
     <g transform="translate(377.396364 496.84058)scale(0.1 -0.1)">
      <use xlink:href="#DejaVuSans-48"/>
      <use x="63.623047" xlink:href="#DejaVuSans-46"/>
      <use x="95.410156" xlink:href="#DejaVuSans-55"/>
      <use x="159.033203" xlink:href="#DejaVuSans-53"/>
     </g>
    </g>
   </g>
   <g id="xtick_14">
    <g id="line2d_16">
     <path d="M 347.451796 478.181442 
L 350.188528 482.122849 
" style="fill:none;stroke:#000000;stroke-linecap:square;stroke-width:0.8;"/>
    </g>
    <g id="text_16">
     <!-- 1.00 -->
     <g transform="translate(341.68797 504.054707)scale(0.1 -0.1)">
      <use xlink:href="#DejaVuSans-49"/>
      <use x="63.623047" xlink:href="#DejaVuSans-46"/>
      <use x="95.410156" xlink:href="#DejaVuSans-48"/>
      <use x="159.033203" xlink:href="#DejaVuSans-48"/>
     </g>
    </g>
   </g>
   <g id="xtick_15">
    <g id="line2d_17">
     <path d="M 311.525898 485.366417 
L 314.198295 489.337674 
" style="fill:none;stroke:#000000;stroke-linecap:square;stroke-width:0.8;"/>
    </g>
    <g id="text_17">
     <!-- 1.25 -->
     <g transform="translate(305.709387 511.323419)scale(0.1 -0.1)">
      <use xlink:href="#DejaVuSans-49"/>
      <use x="63.623047" xlink:href="#DejaVuSans-46"/>
      <use x="95.410156" xlink:href="#DejaVuSans-50"/>
      <use x="159.033203" xlink:href="#DejaVuSans-53"/>
     </g>
    </g>
   </g>
   <g id="xtick_16">
    <g id="line2d_18">
     <path d="M 275.327689 492.605852 
L 277.934693 496.607299 
" style="fill:none;stroke:#000000;stroke-linecap:square;stroke-width:0.8;"/>
    </g>
    <g id="text_18">
     <!-- 1.50 -->
     <g transform="translate(269.457537 518.64734)scale(0.1 -0.1)">
      <use xlink:href="#DejaVuSans-49"/>
      <use x="63.623047" xlink:href="#DejaVuSans-46"/>
      <use x="95.410156" xlink:href="#DejaVuSans-53"/>
      <use x="159.033203" xlink:href="#DejaVuSans-48"/>
     </g>
    </g>
   </g>
   <g id="xtick_17">
    <g id="line2d_19">
     <path d="M 238.85406 499.90037 
L 241.394596 503.932353 
" style="fill:none;stroke:#000000;stroke-linecap:square;stroke-width:0.8;"/>
    </g>
    <g id="text_19">
     <!-- 1.75 -->
     <g transform="translate(232.929294 526.0271)scale(0.1 -0.1)">
      <use xlink:href="#DejaVuSans-49"/>
      <use x="63.623047" xlink:href="#DejaVuSans-46"/>
      <use x="95.410156" xlink:href="#DejaVuSans-55"/>
      <use x="159.033203" xlink:href="#DejaVuSans-53"/>
     </g>
    </g>
   </g>
   <g id="xtick_18">
    <g id="line2d_20">
     <path d="M 202.101855 507.250602 
L 204.574829 511.313471 
" style="fill:none;stroke:#000000;stroke-linecap:square;stroke-width:0.8;"/>
    </g>
    <g id="text_20">
     <!-- 2.00 -->
     <g transform="translate(196.121485 533.46334)scale(0.1 -0.1)">
      <use xlink:href="#DejaVuSans-50"/>
      <use x="63.623047" xlink:href="#DejaVuSans-46"/>
      <use x="95.410156" xlink:href="#DejaVuSans-48"/>
      <use x="159.033203" xlink:href="#DejaVuSans-48"/>
     </g>
    </g>
   </g>
  </g>
  <g id="axis3d_3">
   <g id="line2d_21">
    <path d="M 495.275423 450.08867 
L 506.359487 179.993089 
" style="fill:none;stroke:#000000;stroke-linecap:square;stroke-width:0.8;"/>
   </g>
   <g id="text_21">
    <!-- Y -->
    <defs>
     <path d="M -0.203125 72.90625 
L 10.40625 72.90625 
L 30.609375 42.921875 
L 50.6875 72.90625 
L 61.28125 72.90625 
L 35.5 34.71875 
L 35.5 0 
L 25.59375 0 
L 25.59375 34.71875 
z
" id="DejaVuSans-89"/>
    </defs>
    <g transform="translate(534.860276 329.874287)scale(0.1 -0.1)">
     <use xlink:href="#DejaVuSans-89"/>
    </g>
   </g>
   <g id="Line3DCollection_3">
    <path d="M 495.485767 444.963022 
L 380.450968 298.582553 
L 102.335477 349.129992 
" style="fill:none;stroke:#b0b0b0;stroke-width:0.8;"/>
    <path d="M 496.757111 413.983031 
L 380.954367 269.192171 
L 101.191485 319.17455 
" style="fill:none;stroke:#b0b0b0;stroke-width:0.8;"/>
    <path d="M 498.044579 382.610109 
L 381.463644 239.458545 
L 100.033737 288.858879 
" style="fill:none;stroke:#b0b0b0;stroke-width:0.8;"/>
    <path d="M 499.348481 350.836732 
L 381.978905 209.375624 
L 98.861981 258.176442 
" style="fill:none;stroke:#b0b0b0;stroke-width:0.8;"/>
    <path d="M 500.669133 318.655185 
L 382.500254 178.937219 
L 97.675963 227.120543 
" style="fill:none;stroke:#b0b0b0;stroke-width:0.8;"/>
    <path d="M 502.00686 286.05755 
L 383.027801 148.13699 
L 96.475421 195.68432 
" style="fill:none;stroke:#b0b0b0;stroke-width:0.8;"/>
    <path d="M 503.361996 253.035707 
L 383.561656 116.968447 
L 95.260085 163.860746 
" style="fill:none;stroke:#b0b0b0;stroke-width:0.8;"/>
    <path d="M 504.734882 219.58132 
L 384.101934 85.424944 
L 94.029682 131.642615 
" style="fill:none;stroke:#b0b0b0;stroke-width:0.8;"/>
    <path d="M 506.12587 185.685834 
L 384.64875 53.499674 
L 92.783929 99.022544 
" style="fill:none;stroke:#b0b0b0;stroke-width:0.8;"/>
   </g>
   <g id="xtick_19">
    <g id="line2d_22">
     <path d="M 494.488001 443.693376 
L 497.485373 447.507497 
" style="fill:none;stroke:#000000;stroke-linecap:square;stroke-width:0.8;"/>
    </g>
    <g id="text_22">
     <!-- 0.00 -->
     <g transform="translate(501.000688 456.619457)scale(0.1 -0.1)">
      <use xlink:href="#DejaVuSans-48"/>
      <use x="63.623047" xlink:href="#DejaVuSans-46"/>
      <use x="95.410156" xlink:href="#DejaVuSans-48"/>
      <use x="159.033203" xlink:href="#DejaVuSans-48"/>
     </g>
    </g>
   </g>
   <g id="xtick_20">
    <g id="line2d_23">
     <path d="M 495.752192 412.726559 
L 498.771075 416.501138 
" style="fill:none;stroke:#000000;stroke-linecap:square;stroke-width:0.8;"/>
    </g>
    <g id="text_23">
     <!-- 0.25 -->
     <g transform="translate(502.379947 425.597433)scale(0.1 -0.1)">
      <use xlink:href="#DejaVuSans-48"/>
      <use x="63.623047" xlink:href="#DejaVuSans-46"/>
      <use x="95.410156" xlink:href="#DejaVuSans-50"/>
      <use x="159.033203" xlink:href="#DejaVuSans-53"/>
     </g>
    </g>
   </g>
   <g id="xtick_21">
    <g id="line2d_24">
     <path d="M 497.032407 381.367247 
L 500.073107 385.100971 
" style="fill:none;stroke:#000000;stroke-linecap:square;stroke-width:0.8;"/>
    </g>
    <g id="text_24">
     <!-- 0.50 -->
     <g transform="translate(503.776737 394.181081)scale(0.1 -0.1)">
      <use xlink:href="#DejaVuSans-48"/>
      <use x="63.623047" xlink:href="#DejaVuSans-46"/>
      <use x="95.410156" xlink:href="#DejaVuSans-53"/>
      <use x="159.033203" xlink:href="#DejaVuSans-48"/>
     </g>
    </g>
   </g>
   <g id="xtick_22">
    <g id="line2d_25">
     <path d="M 498.328951 349.607932 
L 501.391782 353.299446 
" style="fill:none;stroke:#000000;stroke-linecap:square;stroke-width:0.8;"/>
    </g>
    <g id="text_25">
     <!-- 0.75 -->
     <g transform="translate(505.191396 362.362832)scale(0.1 -0.1)">
      <use xlink:href="#DejaVuSans-48"/>
      <use x="63.623047" xlink:href="#DejaVuSans-46"/>
      <use x="95.410156" xlink:href="#DejaVuSans-55"/>
      <use x="159.033203" xlink:href="#DejaVuSans-53"/>
     </g>
    </g>
   </g>
   <g id="xtick_23">
    <g id="line2d_26">
     <path d="M 499.642139 317.44091 
L 502.72742 321.088818 
" style="fill:none;stroke:#000000;stroke-linecap:square;stroke-width:0.8;"/>
    </g>
    <g id="text_26">
     <!-- 1.00 -->
     <g transform="translate(506.624269 330.134927)scale(0.1 -0.1)">
      <use xlink:href="#DejaVuSans-49"/>
      <use x="63.623047" xlink:href="#DejaVuSans-46"/>
      <use x="95.410156" xlink:href="#DejaVuSans-48"/>
      <use x="159.033203" xlink:href="#DejaVuSans-48"/>
     </g>
    </g>
   </g>
   <g id="xtick_24">
    <g id="line2d_27">
     <path d="M 500.972294 284.858281 
L 504.080352 288.461143 
" style="fill:none;stroke:#000000;stroke-linecap:square;stroke-width:0.8;"/>
    </g>
    <g id="text_27">
     <!-- 1.25 -->
     <g transform="translate(508.075709 297.489401)scale(0.1 -0.1)">
      <use xlink:href="#DejaVuSans-49"/>
      <use x="63.623047" xlink:href="#DejaVuSans-46"/>
      <use x="95.410156" xlink:href="#DejaVuSans-50"/>
      <use x="159.033203" xlink:href="#DejaVuSans-53"/>
     </g>
    </g>
   </g>
   <g id="xtick_25">
    <g id="line2d_28">
     <path d="M 502.319747 251.851938 
L 505.450915 255.408267 
" style="fill:none;stroke:#000000;stroke-linecap:square;stroke-width:0.8;"/>
    </g>
    <g id="text_28">
     <!-- 1.50 -->
     <g transform="translate(509.546081 264.418086)scale(0.1 -0.1)">
      <use xlink:href="#DejaVuSans-49"/>
      <use x="63.623047" xlink:href="#DejaVuSans-46"/>
      <use x="95.410156" xlink:href="#DejaVuSans-53"/>
      <use x="159.033203" xlink:href="#DejaVuSans-48"/>
     </g>
    </g>
   </g>
   <g id="xtick_26">
    <g id="line2d_29">
     <path d="M 503.684838 218.413561 
L 506.839456 221.921824 
" style="fill:none;stroke:#000000;stroke-linecap:square;stroke-width:0.8;"/>
    </g>
    <g id="text_29">
     <!-- 1.75 -->
     <g transform="translate(511.035756 230.912595)scale(0.1 -0.1)">
      <use xlink:href="#DejaVuSans-49"/>
      <use x="63.623047" xlink:href="#DejaVuSans-46"/>
      <use x="95.410156" xlink:href="#DejaVuSans-55"/>
      <use x="159.033203" xlink:href="#DejaVuSans-53"/>
     </g>
    </g>
   </g>
   <g id="xtick_27">
    <g id="line2d_30">
     <path d="M 505.067914 184.534611 
L 508.246331 187.993228 
" style="fill:none;stroke:#000000;stroke-linecap:square;stroke-width:0.8;"/>
    </g>
    <g id="text_30">
     <!-- 2.00 -->
     <g transform="translate(512.545117 196.964322)scale(0.1 -0.1)">
      <use xlink:href="#DejaVuSans-50"/>
      <use x="63.623047" xlink:href="#DejaVuSans-46"/>
      <use x="95.410156" xlink:href="#DejaVuSans-48"/>
      <use x="159.033203" xlink:href="#DejaVuSans-48"/>
     </g>
    </g>
   </g>
  </g>
  <g id="axes_1">
   <g id="line2d_31">
    <path clip-path="url(#pc4fbf65d08)" d="M 277.273676 332.233924 
L 277.156446 331.939368 
L 276.808409 331.534845 
L 276.373826 331.043031 
L 275.871134 330.452311 
L 275.32023 329.747208 
L 274.742776 328.907273 
L 274.237522 327.909952 
L 274.075625 326.714975 
L 274.301584 325.225688 
L 274.936338 323.309076 
L 276.002441 320.793695 
L 277.532103 317.471144 
L 279.578089 313.108298 
L 282.227369 307.476231 
L 285.612896 300.398948 
L 289.912241 291.817959 
L 295.317525 281.858661 
L 301.967551 270.87488 
L 309.85549 259.443244 
L 318.755509 248.286271 
L 328.204402 238.106846 
L 337.583007 229.387952 
L 346.380743 222.447073 
L 354.241465 217.363846 
L 360.999921 214.025861 
L 366.659523 212.215347 
L 371.335884 211.688342 
L 375.198245 212.225241 
L 378.4259 213.651646 
L 381.182549 215.838147 
L 383.597613 218.633609 
L 385.741159 221.794094 
L 387.667441 225.232851 
L 389.421756 228.887147 
L 391.04039 232.704799 
L 392.551555 236.641179 
L 393.9765 240.656958 
L 395.330639 244.716567 
L 396.624652 248.787279 
L 397.865483 252.838777 
L 399.057242 256.843083 
L 400.201994 260.774697 
L 401.300448 264.610965 
L 402.361126 268.364219 
L 403.390888 272.045167 
L 404.389744 275.642817 
L 405.357449 279.148087 
L 406.293692 282.553769 
L 407.19821 285.854444 
L 408.070868 289.046343 
L 408.911694 292.127182 
L 409.720892 295.095979 
L 410.498834 297.95285 
L 411.236113 300.662249 
L 411.908579 303.134614 
L 412.517498 305.374122 
L 413.065563 307.39035 
L 413.555463 309.192965 
L 413.989808 310.791405 
L 414.371068 312.194646 
L 414.701527 313.411024 
L 414.983259 314.44811 
L 415.2181 315.312625 
L 415.407637 316.010389 
L 415.553203 316.546288 
L 415.655873 316.924265 
L 415.716462 317.147313 
L 415.735531 317.21749 
L 415.713389 317.135931 
" style="fill:none;stroke:#1f77b4;stroke-linecap:square;stroke-width:1.5;"/>
   </g>
   <g id="line2d_32">
    <path clip-path="url(#pc4fbf65d08)" d="M 377.160706 302.270987 
L 396.439206 304.711906 
" style="fill:none;stroke:#ff0000;stroke-linecap:square;stroke-width:1.5;"/>
   </g>
   <g id="line2d_33">
    <path clip-path="url(#pc4fbf65d08)" d="M 396.439206 304.711906 
L 401.385154 243.978879 
" style="fill:none;stroke:#008000;stroke-dasharray:5.55,2.4;stroke-dashoffset:0;stroke-width:1.5;"/>
   </g>
   <g id="line2d_34">
    <path clip-path="url(#pc4fbf65d08)" d="M 396.439206 304.711906 
L 277.575633 331.693079 
" style="fill:none;stroke:#0000ff;stroke-dasharray:5.55,2.4;stroke-dashoffset:0;stroke-width:1.5;"/>
   </g>
   <g id="line2d_35">
    <path clip-path="url(#pc4fbf65d08)" d="M 277.575633 331.693079 
L 278.574721 270.472425 
" style="fill:none;stroke:#008000;stroke-dasharray:5.55,2.4;stroke-dashoffset:0;stroke-width:1.5;"/>
   </g>
   <g id="line2d_36">
    <path clip-path="url(#pc4fbf65d08)" d="M 377.160706 302.270987 
L 381.370806 242.757379 
" style="fill:none;stroke:#008000;stroke-linecap:square;stroke-width:1.5;"/>
   </g>
   <g id="line2d_37">
    <path clip-path="url(#pc4fbf65d08)" d="M 381.370806 242.757379 
L 260.792791 268.643583 
" style="fill:none;stroke:#0000ff;stroke-dasharray:5.55,2.4;stroke-dashoffset:0;stroke-width:1.5;"/>
   </g>
   <g id="line2d_38">
    <path clip-path="url(#pc4fbf65d08)" d="M 260.792791 268.643583 
L 278.574721 270.472425 
" style="fill:none;stroke:#ff0000;stroke-dasharray:5.55,2.4;stroke-dashoffset:0;stroke-width:1.5;"/>
   </g>
   <g id="line2d_39">
    <path clip-path="url(#pc4fbf65d08)" d="M 381.370806 242.757379 
L 401.385154 243.978879 
" style="fill:none;stroke:#ff0000;stroke-dasharray:5.55,2.4;stroke-dashoffset:0;stroke-width:1.5;"/>
   </g>
   <g id="line2d_40">
    <path clip-path="url(#pc4fbf65d08)" d="M 401.385154 243.978879 
L 278.574721 270.472425 
" style="fill:none;stroke:#0000ff;stroke-dasharray:5.55,2.4;stroke-dashoffset:0;stroke-width:1.5;"/>
   </g>
   <g id="line2d_41">
    <path clip-path="url(#pc4fbf65d08)" d="M 377.160706 302.270987 
L 260.389961 328.62735 
" style="fill:none;stroke:#0000ff;stroke-linecap:square;stroke-width:1.5;"/>
   </g>
   <g id="line2d_42">
    <path clip-path="url(#pc4fbf65d08)" d="M 260.389961 328.62735 
L 260.792791 268.643583 
" style="fill:none;stroke:#008000;stroke-dasharray:5.55,2.4;stroke-dashoffset:0;stroke-width:1.5;"/>
   </g>
   <g id="line2d_43">
    <path clip-path="url(#pc4fbf65d08)" d="M 260.389961 328.62735 
L 277.575633 331.693079 
" style="fill:none;stroke:#ff0000;stroke-dasharray:5.55,2.4;stroke-dashoffset:0;stroke-width:1.5;"/>
   </g>
   <g id="line2d_44">
    <path clip-path="url(#pc4fbf65d08)" d="M 377.160706 302.270987 
L 278.574721 270.472425 
" style="fill:none;stroke:#1a1a1a;stroke-linecap:square;stroke-width:1.5;"/>
   </g>
   <g id="line2d_45">
    <path clip-path="url(#pc4fbf65d08)" d="M 377.160706 302.270987 
L 329.57261 318.747759 
" style="fill:none;stroke:#d4558b;stroke-linecap:square;stroke-width:1.5;"/>
   </g>
   <g id="Path3DCollection_1">
    <defs>
     <path d="M 0 2.236068 
C 0.593012 2.236068 1.161816 2.000462 1.581139 1.581139 
C 2.000462 1.161816 2.236068 0.593012 2.236068 0 
C 2.236068 -0.593012 2.000462 -1.161816 1.581139 -1.581139 
C 1.161816 -2.000462 0.593012 -2.236068 0 -2.236068 
C -0.593012 -2.236068 -1.161816 -2.000462 -1.581139 -1.581139 
C -2.000462 -1.161816 -2.236068 -0.593012 -2.236068 0 
C -2.236068 0.593012 -2.000462 1.161816 -1.581139 1.581139 
C -1.161816 2.000462 -0.593012 2.236068 0 2.236068 
z
" id="m46e7a2e52c" style="stroke:#000000;"/>
    </defs>
    <g clip-path="url(#pc4fbf65d08)">
     <use style="fill:#ffffff;stroke:#000000;" x="346.373359" xlink:href="#m46e7a2e52c" y="292.340637"/>
    </g>
   </g>
   <g id="Poly3DCollection_1">
    <path clip-path="url(#pc4fbf65d08)" d="M 379.136551 182.450884 
L 430.03065 369.855562 
L 245.339654 326.272386 
z
" style="fill:#22394a;fill-opacity:0.25;"/>
   </g>
   <g id="Path3DCollection_2">
    <g clip-path="url(#pc4fbf65d08)">
     <use style="fill:#ffffff;stroke:#000000;" x="278.57472" xlink:href="#m46e7a2e52c" y="270.472426"/>
    </g>
   </g>
   <g id="Path3DCollection_3">
    <defs>
     <path d="M 0 2.236068 
C 0.593012 2.236068 1.161816 2.000462 1.581139 1.581139 
C 2.000462 1.161816 2.236068 0.593012 2.236068 0 
C 2.236068 -0.593012 2.000462 -1.161816 1.581139 -1.581139 
C 1.161816 -2.000462 0.593012 -2.236068 0 -2.236068 
C -0.593012 -2.236068 -1.161816 -2.000462 -1.581139 -1.581139 
C -2.000462 -1.161816 -2.236068 -0.593012 -2.236068 0 
C -2.236068 0.593012 -2.000462 1.161816 -1.581139 1.581139 
C -1.161816 2.000462 -0.593012 2.236068 0 2.236068 
z
" id="m18d9ea039c" style="stroke:#000000;"/>
    </defs>
    <g clip-path="url(#pc4fbf65d08)">
     <use style="fill:#d4558b;stroke:#000000;" x="329.57261" xlink:href="#m18d9ea039c" y="318.747759"/>
    </g>
   </g>
  </g>
 </g>
 <defs>
  <clipPath id="pc4fbf65d08">
   <rect height="543.6" width="558" x="7.2" y="7.2"/>
  </clipPath>
 </defs>
</svg>
