<?xml version="1.0" encoding="utf-8" standalone="no"?>
<!DOCTYPE svg PUBLIC "-//W3C//DTD SVG 1.1//EN"
  "http://www.w3.org/Graphics/SVG/1.1/DTD/svg11.dtd">
<!-- Created with matplotlib (https://matplotlib.org/) -->
<svg height="574.678125pt" version="1.1" viewBox="0 0 601.665625 574.678125" width="601.665625pt" xmlns="http://www.w3.org/2000/svg" xmlns:xlink="http://www.w3.org/1999/xlink">
 <defs>
  <style type="text/css">
*{stroke-linecap:butt;stroke-linejoin:round;}
  </style>
 </defs>
 <g id="figure_1">
  <g id="patch_1">
   <path d="M 0 574.678125 
L 601.665625 574.678125 
L 601.665625 0 
L 0 0 
z
" style="fill:none;"/>
  </g>
  <g id="axes_1">
   <g id="patch_2">
    <path d="M 36.465625 550.8 
L 594.465625 550.8 
L 594.465625 7.2 
L 36.465625 7.2 
z
" style="fill:#ffffff;"/>
   </g>
   <g id="matplotlib.axis_1">
    <g id="xtick_1">
     <g id="line2d_1">
      <defs>
       <path d="M 0 0 
L 0 3.5 
" id="m473c534e89" style="stroke:#000000;stroke-width:0.8;"/>
      </defs>
      <g>
       <use style="stroke:#000000;stroke-width:0.8;" x="88.669088" xlink:href="#m473c534e89" y="550.8"/>
      </g>
     </g>
     <g id="text_1">
      <!-- 400 -->
      <defs>
       <path d="M 37.796875 64.3125 
L 12.890625 25.390625 
L 37.796875 25.390625 
z
M 35.203125 72.90625 
L 47.609375 72.90625 
L 47.609375 25.390625 
L 58.015625 25.390625 
L 58.015625 17.1875 
L 47.609375 17.1875 
L 47.609375 0 
L 37.796875 0 
L 37.796875 17.1875 
L 4.890625 17.1875 
L 4.890625 26.703125 
z
" id="DejaVuSans-52"/>
       <path d="M 31.78125 66.40625 
Q 24.171875 66.40625 20.328125 58.90625 
Q 16.5 51.421875 16.5 36.375 
Q 16.5 21.390625 20.328125 13.890625 
Q 24.171875 6.390625 31.78125 6.390625 
Q 39.453125 6.390625 43.28125 13.890625 
Q 47.125 21.390625 47.125 36.375 
Q 47.125 51.421875 43.28125 58.90625 
Q 39.453125 66.40625 31.78125 66.40625 
z
M 31.78125 74.21875 
Q 44.046875 74.21875 50.515625 64.515625 
Q 56.984375 54.828125 56.984375 36.375 
Q 56.984375 17.96875 50.515625 8.265625 
Q 44.046875 -1.421875 31.78125 -1.421875 
Q 19.53125 -1.421875 13.0625 8.265625 
Q 6.59375 17.96875 6.59375 36.375 
Q 6.59375 54.828125 13.0625 64.515625 
Q 19.53125 74.21875 31.78125 74.21875 
z
" id="DejaVuSans-48"/>
      </defs>
      <g transform="translate(79.125338 565.398438)scale(0.1 -0.1)">
       <use xlink:href="#DejaVuSans-52"/>
       <use x="63.623047" xlink:href="#DejaVuSans-48"/>
       <use x="127.246094" xlink:href="#DejaVuSans-48"/>
      </g>
     </g>
    </g>
    <g id="xtick_2">
     <g id="line2d_2">
      <g>
       <use style="stroke:#000000;stroke-width:0.8;" x="155.768655" xlink:href="#m473c534e89" y="550.8"/>
      </g>
     </g>
     <g id="text_2">
      <!-- 450 -->
      <defs>
       <path d="M 10.796875 72.90625 
L 49.515625 72.90625 
L 49.515625 64.59375 
L 19.828125 64.59375 
L 19.828125 46.734375 
Q 21.96875 47.46875 24.109375 47.828125 
Q 26.265625 48.1875 28.421875 48.1875 
Q 40.625 48.1875 47.75 41.5 
Q 54.890625 34.8125 54.890625 23.390625 
Q 54.890625 11.625 47.5625 5.09375 
Q 40.234375 -1.421875 26.90625 -1.421875 
Q 22.3125 -1.421875 17.546875 -0.640625 
Q 12.796875 0.140625 7.71875 1.703125 
L 7.71875 11.625 
Q 12.109375 9.234375 16.796875 8.0625 
Q 21.484375 6.890625 26.703125 6.890625 
Q 35.15625 6.890625 40.078125 11.328125 
Q 45.015625 15.765625 45.015625 23.390625 
Q 45.015625 31 40.078125 35.4375 
Q 35.15625 39.890625 26.703125 39.890625 
Q 22.75 39.890625 18.8125 39.015625 
Q 14.890625 38.140625 10.796875 36.28125 
z
" id="DejaVuSans-53"/>
      </defs>
      <g transform="translate(146.224905 565.398438)scale(0.1 -0.1)">
       <use xlink:href="#DejaVuSans-52"/>
       <use x="63.623047" xlink:href="#DejaVuSans-53"/>
       <use x="127.246094" xlink:href="#DejaVuSans-48"/>
      </g>
     </g>
    </g>
    <g id="xtick_3">
     <g id="line2d_3">
      <g>
       <use style="stroke:#000000;stroke-width:0.8;" x="222.868222" xlink:href="#m473c534e89" y="550.8"/>
      </g>
     </g>
     <g id="text_3">
      <!-- 500 -->
      <g transform="translate(213.324472 565.398438)scale(0.1 -0.1)">
       <use xlink:href="#DejaVuSans-53"/>
       <use x="63.623047" xlink:href="#DejaVuSans-48"/>
       <use x="127.246094" xlink:href="#DejaVuSans-48"/>
      </g>
     </g>
    </g>
    <g id="xtick_4">
     <g id="line2d_4">
      <g>
       <use style="stroke:#000000;stroke-width:0.8;" x="289.96779" xlink:href="#m473c534e89" y="550.8"/>
      </g>
     </g>
     <g id="text_4">
      <!-- 550 -->
      <g transform="translate(280.42404 565.398438)scale(0.1 -0.1)">
       <use xlink:href="#DejaVuSans-53"/>
       <use x="63.623047" xlink:href="#DejaVuSans-53"/>
       <use x="127.246094" xlink:href="#DejaVuSans-48"/>
      </g>
     </g>
    </g>
    <g id="xtick_5">
     <g id="line2d_5">
      <g>
       <use style="stroke:#000000;stroke-width:0.8;" x="357.067357" xlink:href="#m473c534e89" y="550.8"/>
      </g>
     </g>
     <g id="text_5">
      <!-- 600 -->
      <defs>
       <path d="M 33.015625 40.375 
Q 26.375 40.375 22.484375 35.828125 
Q 18.609375 31.296875 18.609375 23.390625 
Q 18.609375 15.53125 22.484375 10.953125 
Q 26.375 6.390625 33.015625 6.390625 
Q 39.65625 6.390625 43.53125 10.953125 
Q 47.40625 15.53125 47.40625 23.390625 
Q 47.40625 31.296875 43.53125 35.828125 
Q 39.65625 40.375 33.015625 40.375 
z
M 52.59375 71.296875 
L 52.59375 62.3125 
Q 48.875 64.0625 45.09375 64.984375 
Q 41.3125 65.921875 37.59375 65.921875 
Q 27.828125 65.921875 22.671875 59.328125 
Q 17.53125 52.734375 16.796875 39.40625 
Q 19.671875 43.65625 24.015625 45.921875 
Q 28.375 48.1875 33.59375 48.1875 
Q 44.578125 48.1875 50.953125 41.515625 
Q 57.328125 34.859375 57.328125 23.390625 
Q 57.328125 12.15625 50.6875 5.359375 
Q 44.046875 -1.421875 33.015625 -1.421875 
Q 20.359375 -1.421875 13.671875 8.265625 
Q 6.984375 17.96875 6.984375 36.375 
Q 6.984375 53.65625 15.1875 63.9375 
Q 23.390625 74.21875 37.203125 74.21875 
Q 40.921875 74.21875 44.703125 73.484375 
Q 48.484375 72.75 52.59375 71.296875 
z
" id="DejaVuSans-54"/>
      </defs>
      <g transform="translate(347.523607 565.398438)scale(0.1 -0.1)">
       <use xlink:href="#DejaVuSans-54"/>
       <use x="63.623047" xlink:href="#DejaVuSans-48"/>
       <use x="127.246094" xlink:href="#DejaVuSans-48"/>
      </g>
     </g>
    </g>
    <g id="xtick_6">
     <g id="line2d_6">
      <g>
       <use style="stroke:#000000;stroke-width:0.8;" x="424.166924" xlink:href="#m473c534e89" y="550.8"/>
      </g>
     </g>
     <g id="text_6">
      <!-- 650 -->
      <g transform="translate(414.623174 565.398438)scale(0.1 -0.1)">
       <use xlink:href="#DejaVuSans-54"/>
       <use x="63.623047" xlink:href="#DejaVuSans-53"/>
       <use x="127.246094" xlink:href="#DejaVuSans-48"/>
      </g>
     </g>
    </g>
    <g id="xtick_7">
     <g id="line2d_7">
      <g>
       <use style="stroke:#000000;stroke-width:0.8;" x="491.266491" xlink:href="#m473c534e89" y="550.8"/>
      </g>
     </g>
     <g id="text_7">
      <!-- 700 -->
      <defs>
       <path d="M 8.203125 72.90625 
L 55.078125 72.90625 
L 55.078125 68.703125 
L 28.609375 0 
L 18.3125 0 
L 43.21875 64.59375 
L 8.203125 64.59375 
z
" id="DejaVuSans-55"/>
      </defs>
      <g transform="translate(481.722741 565.398438)scale(0.1 -0.1)">
       <use xlink:href="#DejaVuSans-55"/>
       <use x="63.623047" xlink:href="#DejaVuSans-48"/>
       <use x="127.246094" xlink:href="#DejaVuSans-48"/>
      </g>
     </g>
    </g>
    <g id="xtick_8">
     <g id="line2d_8">
      <g>
       <use style="stroke:#000000;stroke-width:0.8;" x="558.366058" xlink:href="#m473c534e89" y="550.8"/>
      </g>
     </g>
     <g id="text_8">
      <!-- 750 -->
      <g transform="translate(548.822308 565.398438)scale(0.1 -0.1)">
       <use xlink:href="#DejaVuSans-55"/>
       <use x="63.623047" xlink:href="#DejaVuSans-53"/>
       <use x="127.246094" xlink:href="#DejaVuSans-48"/>
      </g>
     </g>
    </g>
   </g>
   <g id="matplotlib.axis_2">
    <g id="ytick_1">
     <g id="line2d_9">
      <defs>
       <path d="M 0 0 
L -3.5 0 
" id="me94c5c8cb4" style="stroke:#000000;stroke-width:0.8;"/>
      </defs>
      <g>
       <use style="stroke:#000000;stroke-width:0.8;" x="36.465625" xlink:href="#me94c5c8cb4" y="526.090909"/>
      </g>
     </g>
     <g id="text_9">
      <!-- 0.00 -->
      <defs>
       <path d="M 10.6875 12.40625 
L 21 12.40625 
L 21 0 
L 10.6875 0 
z
" id="DejaVuSans-46"/>
      </defs>
      <g transform="translate(7.2 529.890128)scale(0.1 -0.1)">
       <use xlink:href="#DejaVuSans-48"/>
       <use x="63.623047" xlink:href="#DejaVuSans-46"/>
       <use x="95.410156" xlink:href="#DejaVuSans-48"/>
       <use x="159.033203" xlink:href="#DejaVuSans-48"/>
      </g>
     </g>
    </g>
    <g id="ytick_2">
     <g id="line2d_10">
      <g>
       <use style="stroke:#000000;stroke-width:0.8;" x="36.465625" xlink:href="#me94c5c8cb4" y="456.818959"/>
      </g>
     </g>
     <g id="text_10">
      <!-- 0.25 -->
      <defs>
       <path d="M 19.1875 8.296875 
L 53.609375 8.296875 
L 53.609375 0 
L 7.328125 0 
L 7.328125 8.296875 
Q 12.9375 14.109375 22.625 23.890625 
Q 32.328125 33.6875 34.8125 36.53125 
Q 39.546875 41.84375 41.421875 45.53125 
Q 43.3125 49.21875 43.3125 52.78125 
Q 43.3125 58.59375 39.234375 62.25 
Q 35.15625 65.921875 28.609375 65.921875 
Q 23.96875 65.921875 18.8125 64.3125 
Q 13.671875 62.703125 7.8125 59.421875 
L 7.8125 69.390625 
Q 13.765625 71.78125 18.9375 73 
Q 24.125 74.21875 28.421875 74.21875 
Q 39.75 74.21875 46.484375 68.546875 
Q 53.21875 62.890625 53.21875 53.421875 
Q 53.21875 48.921875 51.53125 44.890625 
Q 49.859375 40.875 45.40625 35.40625 
Q 44.1875 33.984375 37.640625 27.21875 
Q 31.109375 20.453125 19.1875 8.296875 
z
" id="DejaVuSans-50"/>
      </defs>
      <g transform="translate(7.2 460.618178)scale(0.1 -0.1)">
       <use xlink:href="#DejaVuSans-48"/>
       <use x="63.623047" xlink:href="#DejaVuSans-46"/>
       <use x="95.410156" xlink:href="#DejaVuSans-50"/>
       <use x="159.033203" xlink:href="#DejaVuSans-53"/>
      </g>
     </g>
    </g>
    <g id="ytick_3">
     <g id="line2d_11">
      <g>
       <use style="stroke:#000000;stroke-width:0.8;" x="36.465625" xlink:href="#me94c5c8cb4" y="387.54701"/>
      </g>
     </g>
     <g id="text_11">
      <!-- 0.50 -->
      <g transform="translate(7.2 391.346228)scale(0.1 -0.1)">
       <use xlink:href="#DejaVuSans-48"/>
       <use x="63.623047" xlink:href="#DejaVuSans-46"/>
       <use x="95.410156" xlink:href="#DejaVuSans-53"/>
       <use x="159.033203" xlink:href="#DejaVuSans-48"/>
      </g>
     </g>
    </g>
    <g id="ytick_4">
     <g id="line2d_12">
      <g>
       <use style="stroke:#000000;stroke-width:0.8;" x="36.465625" xlink:href="#me94c5c8cb4" y="318.27506"/>
      </g>
     </g>
     <g id="text_12">
      <!-- 0.75 -->
      <g transform="translate(7.2 322.074279)scale(0.1 -0.1)">
       <use xlink:href="#DejaVuSans-48"/>
       <use x="63.623047" xlink:href="#DejaVuSans-46"/>
       <use x="95.410156" xlink:href="#DejaVuSans-55"/>
       <use x="159.033203" xlink:href="#DejaVuSans-53"/>
      </g>
     </g>
    </g>
    <g id="ytick_5">
     <g id="line2d_13">
      <g>
       <use style="stroke:#000000;stroke-width:0.8;" x="36.465625" xlink:href="#me94c5c8cb4" y="249.00311"/>
      </g>
     </g>
     <g id="text_13">
      <!-- 1.00 -->
      <defs>
       <path d="M 12.40625 8.296875 
L 28.515625 8.296875 
L 28.515625 63.921875 
L 10.984375 60.40625 
L 10.984375 69.390625 
L 28.421875 72.90625 
L 38.28125 72.90625 
L 38.28125 8.296875 
L 54.390625 8.296875 
L 54.390625 0 
L 12.40625 0 
z
" id="DejaVuSans-49"/>
      </defs>
      <g transform="translate(7.2 252.802329)scale(0.1 -0.1)">
       <use xlink:href="#DejaVuSans-49"/>
       <use x="63.623047" xlink:href="#DejaVuSans-46"/>
       <use x="95.410156" xlink:href="#DejaVuSans-48"/>
       <use x="159.033203" xlink:href="#DejaVuSans-48"/>
      </g>
     </g>
    </g>
    <g id="ytick_6">
     <g id="line2d_14">
      <g>
       <use style="stroke:#000000;stroke-width:0.8;" x="36.465625" xlink:href="#me94c5c8cb4" y="179.73116"/>
      </g>
     </g>
     <g id="text_14">
      <!-- 1.25 -->
      <g transform="translate(7.2 183.530379)scale(0.1 -0.1)">
       <use xlink:href="#DejaVuSans-49"/>
       <use x="63.623047" xlink:href="#DejaVuSans-46"/>
       <use x="95.410156" xlink:href="#DejaVuSans-50"/>
       <use x="159.033203" xlink:href="#DejaVuSans-53"/>
      </g>
     </g>
    </g>
    <g id="ytick_7">
     <g id="line2d_15">
      <g>
       <use style="stroke:#000000;stroke-width:0.8;" x="36.465625" xlink:href="#me94c5c8cb4" y="110.459211"/>
      </g>
     </g>
     <g id="text_15">
      <!-- 1.50 -->
      <g transform="translate(7.2 114.258429)scale(0.1 -0.1)">
       <use xlink:href="#DejaVuSans-49"/>
       <use x="63.623047" xlink:href="#DejaVuSans-46"/>
       <use x="95.410156" xlink:href="#DejaVuSans-53"/>
       <use x="159.033203" xlink:href="#DejaVuSans-48"/>
      </g>
     </g>
    </g>
    <g id="ytick_8">
     <g id="line2d_16">
      <g>
       <use style="stroke:#000000;stroke-width:0.8;" x="36.465625" xlink:href="#me94c5c8cb4" y="41.187261"/>
      </g>
     </g>
     <g id="text_16">
      <!-- 1.75 -->
      <g transform="translate(7.2 44.98648)scale(0.1 -0.1)">
       <use xlink:href="#DejaVuSans-49"/>
       <use x="63.623047" xlink:href="#DejaVuSans-46"/>
       <use x="95.410156" xlink:href="#DejaVuSans-55"/>
       <use x="159.033203" xlink:href="#DejaVuSans-53"/>
      </g>
     </g>
    </g>
   </g>
   <g id="line2d_17">
    <path clip-path="url(#p4e93380a21)" d="M 61.829261 526.034512 
L 65.855235 525.97658 
L 69.881209 525.867118 
L 73.907183 525.667935 
L 77.933157 525.318994 
L 81.959131 524.730692 
L 85.985106 523.776561 
L 90.01108 522.288746 
L 94.037054 520.059571 
L 98.063028 516.852929 
L 102.089002 512.428724 
L 106.114976 506.581578 
L 110.14095 499.191504 
L 114.166924 490.279655 
L 118.192898 480.057757 
L 122.218872 468.957148 
L 126.244846 457.624025 
L 130.27082 446.872584 
L 134.296794 437.596683 
L 138.322768 430.651598 
L 142.348742 426.727042 
L 146.374716 426.112652 
L 150.40069 427.294916 
L 154.426664 429.750832 
L 158.452638 433.412795 
L 162.478612 438.175048 
L 166.504586 443.899692 
L 170.53056 450.423718 
L 174.556534 457.566338 
L 178.582508 465.135989 
L 182.608482 472.936557 
L 186.634456 480.772572 
L 190.66043 488.453389 
L 194.686404 495.796539 
L 198.712378 502.630604 
L 202.738352 508.797928 
L 206.764326 514.157428 
L 210.7903 518.587552 
L 214.816274 521.989242 
L 218.842248 524.288531 
L 222.868222 525.438295 
L 226.894196 525.449187 
L 230.92017 524.434776 
L 234.946144 522.417114 
L 238.972119 519.413229 
L 242.998093 515.443263 
L 247.024067 510.528836 
L 251.050041 504.69195 
L 255.076015 497.954484 
L 259.101989 490.338284 
L 263.127963 481.865871 
L 267.153937 472.561705 
L 271.179911 462.453939 
L 275.205885 451.576568 
L 279.231859 439.971804 
L 283.257833 427.692529 
L 287.283807 414.804631 
L 291.309781 401.389027 
L 295.335755 387.543195 
L 299.361729 373.382061 
L 303.387703 359.038098 
L 307.413677 344.660559 
L 311.439651 330.413813 
L 315.465625 316.474781 
L 319.491599 303.029552 
L 323.517573 290.269275 
L 327.543547 278.385486 
L 331.569521 267.565058 
L 335.595495 257.984969 
L 339.621469 249.807116 
L 343.647443 243.173405 
L 347.673417 238.20131 
L 351.699391 234.980114 
L 355.725365 233.567981 
L 359.751339 234.234721 
L 363.777313 237.591329 
L 367.803287 243.575826 
L 371.829261 252.022519 
L 375.855235 262.701954 
L 379.881209 275.331194 
L 383.907183 289.586215 
L 387.933157 305.115637 
L 391.959131 321.554989 
L 395.985106 338.540702 
L 400.01108 355.723078 
L 404.037054 372.77764 
L 408.063028 389.414357 
L 412.089002 405.384476 
L 416.114976 420.484822 
L 420.14095 434.559611 
L 424.166924 447.499978 
L 428.192898 459.241528 
L 432.218872 469.760295 
L 436.244846 479.067541 
L 440.27082 487.203849 
L 444.296794 494.232899 
L 448.322768 500.235327 
L 452.348742 505.302937 
L 456.374716 509.533511 
L 460.40069 513.026367 
L 464.426664 515.878729 
L 468.452638 518.182942 
L 472.478612 520.024476 
L 476.504586 521.480663 
L 480.53056 522.620051 
L 484.556534 523.502268 
L 488.582508 524.178288 
L 492.608482 524.690973 
L 496.634456 525.075807 
L 500.66043 525.361732 
L 504.686404 525.572015 
L 508.712378 525.725107 
L 512.738352 525.835441 
L 516.764326 525.914163 
L 520.7903 525.96977 
L 524.816274 526.008658 
L 528.842248 526.035585 
L 532.868222 526.054044 
L 536.894196 526.066574 
L 540.92017 526.074995 
L 544.946144 526.080599 
L 548.972119 526.084292 
L 552.998093 526.086702 
L 557.024067 526.088259 
L 561.050041 526.089256 
L 565.076015 526.089887 
L 569.101989 526.090283 
" style="fill:none;stroke:#ff0000;stroke-linecap:square;stroke-width:1.5;"/>
   </g>
   <g id="line2d_18">
    <path clip-path="url(#p4e93380a21)" d="M 61.829261 526.020883 
L 65.855235 526.00055 
L 69.881209 525.974787 
L 73.907183 525.942288 
L 77.933157 525.901467 
L 81.959131 525.850419 
L 85.985106 525.78686 
L 90.01108 525.708068 
L 94.037054 525.610823 
L 98.063028 525.49133 
L 102.089002 525.345146 
L 106.114976 525.167102 
L 110.14095 524.951213 
L 114.166924 524.690602 
L 118.192898 524.377409 
L 122.218872 524.002711 
L 126.244846 523.556446 
L 130.27082 523.027345 
L 134.296794 522.402876 
L 138.322768 521.669208 
L 142.348742 520.811187 
L 146.374716 519.812346 
L 150.40069 518.654932 
L 154.426664 517.319968 
L 158.452638 515.787319 
L 162.478612 514.035775 
L 166.504586 512.04308 
L 170.53056 509.785875 
L 174.556534 507.239422 
L 178.582508 504.376967 
L 182.608482 501.168537 
L 186.634456 497.578929 
L 190.66043 493.564706 
L 194.686404 489.070124 
L 198.712378 484.022267 
L 202.738352 478.326111 
L 206.764326 471.860937 
L 210.7903 464.480172 
L 214.816274 456.017207 
L 218.842248 446.299686 
L 222.868222 435.17376 
L 226.894196 422.537826 
L 230.92017 408.382332 
L 234.946144 392.828975 
L 238.972119 376.160069 
L 242.998093 358.828111 
L 247.024067 341.43753 
L 251.050041 324.695563 
L 255.076015 309.336218 
L 259.101989 296.028716 
L 263.127963 285.287279 
L 267.153937 276.927809 
L 271.179911 269.679039 
L 275.205885 263.511032 
L 279.231859 258.460982 
L 283.257833 254.54658 
L 287.283807 251.767339 
L 291.309781 250.106523 
L 295.335755 249.533488 
L 299.361729 250.006278 
L 303.387703 251.474279 
L 307.413677 253.88077 
L 311.439651 257.165232 
L 315.465625 261.266015 
L 319.491599 266.299991 
L 323.517573 272.339287 
L 327.543547 279.309353 
L 331.569521 287.128917 
L 335.595495 295.710755 
L 339.621469 304.962484 
L 343.647443 314.787433 
L 347.673417 325.085622 
L 351.699391 335.754882 
L 355.725365 346.692091 
L 359.751339 357.794543 
L 363.777313 368.96139 
L 367.803287 380.095126 
L 371.829261 391.103054 
L 375.855235 401.898681 
L 379.881209 412.40298 
L 383.907183 422.545467 
L 387.933157 432.265058 
L 391.959131 441.510666 
L 395.985106 450.241528 
L 400.01108 458.427255 
L 404.037054 466.047621 
L 408.063028 473.092105 
L 412.089002 479.559227 
L 416.114976 485.455704 
L 420.14095 490.795484 
L 424.166924 495.598687 
L 428.192898 499.89051 
L 432.218872 503.700122 
L 436.244846 507.059598 
L 440.27082 510.002913 
L 444.296794 512.565022 
L 448.322768 514.781048 
L 452.348742 516.685575 
L 456.374716 518.312072 
L 460.40069 519.692426 
L 464.426664 520.856593 
L 468.452638 521.832352 
L 472.478612 522.645161 
L 476.504586 523.318082 
L 480.53056 523.871797 
L 484.556534 524.324656 
L 488.582508 524.692794 
L 492.608482 524.990258 
L 496.634456 525.229177 
L 500.66043 525.419927 
L 504.686404 525.571314 
L 508.712378 525.690748 
L 512.738352 525.784416 
L 516.764326 525.857444 
L 520.7903 525.914045 
L 524.816274 525.957658 
L 528.842248 525.991066 
L 532.868222 526.016507 
L 536.894196 526.03577 
L 540.92017 526.050269 
L 544.946144 526.061119 
L 548.972119 526.069193 
L 552.998093 526.075165 
L 557.024067 526.079557 
L 561.050041 526.082768 
L 565.076015 526.085104 
L 569.101989 526.086791 
" style="fill:none;stroke:#008000;stroke-linecap:square;stroke-width:1.5;"/>
   </g>
   <g id="line2d_19">
    <path clip-path="url(#p4e93380a21)" d="M 61.829261 524.238566 
L 65.855235 523.470615 
L 69.881209 522.424361 
L 73.907183 521.004673 
L 77.933157 519.071522 
L 81.959131 516.404594 
L 85.985106 512.642955 
L 90.01108 507.19545 
L 94.037054 499.131503 
L 98.063028 487.088974 
L 102.089002 469.270978 
L 106.114976 443.628681 
L 110.14095 408.311678 
L 114.166924 362.38396 
L 118.192898 306.654425 
L 122.218872 244.312394 
L 126.244846 180.991759 
L 130.27082 124.004987 
L 134.296794 80.797711 
L 138.322768 57.055112 
L 142.348742 45.644614 
L 146.374716 37.446645 
L 150.40069 32.78376 
L 154.426664 31.909091 
L 158.452638 34.988529 
L 162.478612 42.086062 
L 166.504586 53.153732 
L 170.53056 69.442087 
L 174.556534 94.964255 
L 178.582508 128.446654 
L 182.608482 167.408126 
L 186.634456 208.98902 
L 190.66043 250.452124 
L 194.686404 289.582766 
L 198.712378 324.908544 
L 202.738352 355.724979 
L 206.764326 381.969614 
L 210.7903 404.016359 
L 214.816274 422.461295 
L 218.842248 437.949716 
L 222.868222 451.065749 
L 226.894196 462.282028 
L 230.92017 471.95339 
L 234.946144 480.335138 
L 238.972119 487.609857 
L 242.998093 493.91269 
L 247.024067 499.350588 
L 251.050041 504.014843 
L 255.076015 507.988099 
L 259.101989 511.347609 
L 263.127963 514.166296 
L 267.153937 516.512729 
L 271.179911 518.4507 
L 275.205885 520.038774 
L 279.231859 521.329978 
L 283.257833 522.371665 
L 287.283807 523.20557 
L 291.309781 523.868017 
L 295.335755 524.390243 
L 299.361729 524.798801 
L 303.387703 525.116014 
L 307.413677 525.360449 
L 311.439651 525.547391 
L 315.465625 525.689293 
L 319.491599 525.796204 
L 323.517573 525.876154 
L 327.543547 525.9355 
L 331.569521 525.979225 
L 335.595495 526.011204 
L 339.621469 526.034421 
L 343.647443 526.051153 
L 347.673417 526.063122 
L 351.699391 526.071623 
L 355.725365 526.077616 
L 359.751339 526.08181 
L 363.777313 526.084724 
L 367.803287 526.086734 
L 371.829261 526.08811 
L 375.855235 526.089046 
L 379.881209 526.089677 
L 383.907183 526.0901 
L 387.933157 526.090382 
L 391.959131 526.090568 
L 395.985106 526.09069 
L 400.01108 526.090769 
L 404.037054 526.09082 
L 408.063028 526.090853 
L 412.089002 526.090874 
L 416.114976 526.090887 
L 420.14095 526.090896 
L 424.166924 526.090901 
L 428.192898 526.090904 
L 432.218872 526.090906 
L 436.244846 526.090907 
L 440.27082 526.090908 
L 444.296794 526.090908 
L 448.322768 526.090909 
L 452.348742 526.090909 
L 456.374716 526.090909 
L 460.40069 526.090909 
L 464.426664 526.090909 
L 468.452638 526.090909 
L 472.478612 526.090909 
L 476.504586 526.090909 
L 480.53056 526.090909 
L 484.556534 526.090909 
L 488.582508 526.090909 
L 492.608482 526.090909 
L 496.634456 526.090909 
L 500.66043 526.090909 
L 504.686404 526.090909 
L 508.712378 526.090909 
L 512.738352 526.090909 
L 516.764326 526.090909 
L 520.7903 526.090909 
L 524.816274 526.090909 
L 528.842248 526.090909 
L 532.868222 526.090909 
L 536.894196 526.090909 
L 540.92017 526.090909 
L 544.946144 526.090909 
L 548.972119 526.090909 
L 552.998093 526.090909 
L 557.024067 526.090909 
L 561.050041 526.090909 
L 565.076015 526.090909 
L 569.101989 526.090909 
" style="fill:none;stroke:#0000ff;stroke-linecap:square;stroke-width:1.5;"/>
   </g>
   <g id="patch_3">
    <path d="M 36.465625 550.8 
L 36.465625 7.2 
" style="fill:none;stroke:#000000;stroke-linecap:square;stroke-linejoin:miter;stroke-width:0.8;"/>
   </g>
   <g id="patch_4">
    <path d="M 594.465625 550.8 
L 594.465625 7.2 
" style="fill:none;stroke:#000000;stroke-linecap:square;stroke-linejoin:miter;stroke-width:0.8;"/>
   </g>
   <g id="patch_5">
    <path d="M 36.465625 550.8 
L 594.465625 550.8 
" style="fill:none;stroke:#000000;stroke-linecap:square;stroke-linejoin:miter;stroke-width:0.8;"/>
   </g>
   <g id="patch_6">
    <path d="M 36.465625 7.2 
L 594.465625 7.2 
" style="fill:none;stroke:#000000;stroke-linecap:square;stroke-linejoin:miter;stroke-width:0.8;"/>
   </g>
  </g>
 </g>
 <defs>
  <clipPath id="p4e93380a21">
   <rect height="543.6" width="558" x="36.465625" y="7.2"/>
  </clipPath>
 </defs>
</svg>
